<?xml version="1.0" encoding="UTF-8" standalone="no"?>
<!-- Created with Inkscape (http://www.inkscape.org/) -->

<svg
   width="210mm"
   height="297mm"
   viewBox="0 0 210 297"
   version="1.1"
   id="svg5"
   inkscape:version="1.2.2 (732a01da63, 2022-12-09)"
   sodipodi:docname="class.svg"
   xmlns:inkscape="http://www.inkscape.org/namespaces/inkscape"
   xmlns:sodipodi="http://sodipodi.sourceforge.net/DTD/sodipodi-0.dtd"
   xmlns="http://www.w3.org/2000/svg"
   xmlns:svg="http://www.w3.org/2000/svg">
  <sodipodi:namedview
     id="namedview7"
     pagecolor="#505050"
     bordercolor="#eeeeee"
     borderopacity="1"
     inkscape:showpageshadow="0"
     inkscape:pageopacity="0"
     inkscape:pagecheckerboard="0"
     inkscape:deskcolor="#505050"
     inkscape:document-units="mm"
     showgrid="false"
     inkscape:zoom="1.4877245"
     inkscape:cx="350.53534"
     inkscape:cy="556.89075"
     inkscape:window-width="1920"
     inkscape:window-height="1051"
     inkscape:window-x="-9"
     inkscape:window-y="-9"
     inkscape:window-maximized="1"
     inkscape:current-layer="layer1" />
  <defs
     id="defs2" />
  <g
     inkscape:label="Layer 1"
     inkscape:groupmode="layer"
     id="layer1">
    <path
       d="m 65.455065,118.49795 q -1.364256,0.47575 -2.480467,0.89203 -1.091406,0.41628 -2.877342,0.8722 -1.513087,0.37664 -3.299023,0.63433 -1.761132,0.27752 -3.894335,0.27752 -4.018357,0 -7.31738,-0.89203 -3.274217,-0.91184 -5.705076,-2.83466 -2.381249,-1.88316 -3.720701,-4.77729 -1.339454,-2.91395 -1.339454,-6.75957 0,-3.6474 1.289844,-6.521707 1.289843,-2.874298 3.720701,-4.856581 2.356446,-1.922808 5.680273,-2.933772 3.348631,-1.010965 7.416598,-1.010965 2.976561,0 5.928318,0.574858 2.976561,0.574866 6.598044,2.021929 v 4.658355 h -0.37207 q -3.050975,-2.041749 -6.052341,-2.973419 -3.001366,-0.931671 -6.424412,-0.931671 -2.802928,0 -5.060155,0.733445 -2.232421,0.713617 -3.993553,2.239974 -1.711522,1.48671 -2.678904,3.766334 -0.942579,2.2598 -0.942579,5.23322 0,3.11218 1.041797,5.35215 1.066601,2.23998 2.728515,3.6474 1.736327,1.46688 4.043163,2.18051 2.331639,0.69379 4.911325,0.69379 3.54707,0 6.647654,-0.97131 3.100585,-0.97132 5.804296,-2.91395 h 0.347264 z"
       id="path1782"
       style="font-size:45.4129px;line-height:1;font-family:'HoloLens MDL2 Assets';-inkscape-font-specification:'HoloLens MDL2 Assets';stroke:#072946;stroke-width:2.837;stroke-opacity:1;fill:#072946;fill-opacity:1" />
    <path
       d="M 76.741195,120.63882 H 72.077914 V 89.794544 h 4.663281 z"
       id="path1784"
       style="font-size:45.4129px;line-height:1;font-family:'HoloLens MDL2 Assets';-inkscape-font-specification:'HoloLens MDL2 Assets';fill:#e0a01a;fill-opacity:1;stroke:#e0a01a;stroke-width:2.837;stroke-opacity:1" />
    <path
       d="m 107.49899,120.63882 h -4.63847 v -2.35892 q -0.62012,0.33699 -1.68672,0.9515 -1.0418,0.59468 -2.033982,0.95149 -1.165821,0.45593 -2.678906,0.75326 -1.513085,0.31717 -3.547068,0.31717 -3.745508,0 -6.349999,-1.98228 -2.604491,-1.98228 -2.604491,-5.05481 0,-2.5175 1.339453,-4.06368 1.364257,-1.566 3.869529,-2.45802 2.530078,-0.89203 6.077147,-1.20919 3.547069,-0.31717 7.615037,-0.47575 v -0.57486 q 0,-1.26866 -0.57051,-2.10122 -0.5457,-0.83256 -1.5875,-1.3083 -0.992185,-0.45593 -2.381247,-0.61451 -1.389062,-0.15858 -2.902147,-0.15858 -1.835546,0 -4.092772,0.39645 -2.257226,0.37664 -4.66328,1.11008 h -0.248046 v -3.786148 q 1.364256,-0.297347 3.943943,-0.65416 2.579687,-0.356804 5.08496,-0.356804 2.926951,0 5.084959,0.396451 2.18281,0.376632 3.77031,1.308303 1.5627,0.911848 2.38125,2.358918 0.81855,1.44706 0.81855,3.58792 z m -4.63847,-5.45127 v -6.16489 q -2.1332,0.0991 -5.03535,0.29734 -2.877343,0.19823 -4.564062,0.57486 -2.009178,0.45592 -3.249413,1.42724 -1.240233,0.9515 -1.240233,2.63643 0,1.90299 1.438672,2.87431 1.438671,0.95149 4.390428,0.95149 2.455662,0 4.489646,-0.75327 2.033982,-0.77308 3.770312,-1.84351 z"
       id="path1786"
       style="font-size:45.4129px;line-height:1;font-family:'HoloLens MDL2 Assets';-inkscape-font-specification:'HoloLens MDL2 Assets';stroke:#e0a01a;stroke-width:2.837;fill:#e0a01a;fill-opacity:1;stroke-opacity:1" />
    <path
       d="m 136.27243,114.25588 q 0,3.03288 -3.1502,4.97552 -3.12539,1.94263 -8.55762,1.94263 -3.07578,0 -5.65546,-0.57486 -2.55489,-0.59469 -4.29121,-1.28849 v -4.1826 h 0.24804 q 2.20762,1.32813 4.91133,2.12104 2.70371,0.77309 5.18418,0.77309 3.07578,0 4.81211,-0.79291 1.73633,-0.79292 1.73633,-2.49768 0,-1.3083 -0.94258,-1.98228 -0.94259,-0.67397 -3.62149,-1.14972 -0.99219,-0.17841 -2.60449,-0.41628 -1.5875,-0.23787 -2.90214,-0.51539 -3.64629,-0.77309 -5.18419,-2.2598 -1.51308,-1.50653 -1.51308,-3.68704 0,-1.36777 0.69453,-2.57696 0.71934,-1.20919 2.158,-2.160692 1.38907,-0.931671 3.52227,-1.466881 2.15801,-0.555039 4.81211,-0.555039 2.48046,0 5.01055,0.495564 2.55488,0.475754 4.2416,1.169552 v 3.984376 h -0.24805 q -1.78594,-1.0506 -4.34082,-1.76423 -2.55488,-0.73344 -5.01054,-0.73344 -2.55488,0 -4.31601,0.79292 -1.76114,0.77308 -1.76114,2.31926 0,1.36777 1.0666,2.06157 1.0418,0.6938 3.37344,1.1299 1.28984,0.23787 2.87734,0.47575 1.6123,0.23787 2.6789,0.4361 3.24942,0.59468 5.01054,2.04175 1.76115,1.46688 1.76115,3.88527 z"
       id="path1788"
       style="font-size:45.4129px;line-height:1;font-family:'HoloLens MDL2 Assets';-inkscape-font-specification:'HoloLens MDL2 Assets';stroke:#e9476c;stroke-width:2.837;stroke-opacity:1;fill:#e9476c;fill-opacity:1" />
    <path
       d="m 162.73901,114.25588 q 0,3.03288 -3.15019,4.97552 -3.12539,1.94263 -8.55761,1.94263 -3.07578,0 -5.65547,-0.57486 -2.55489,-0.59469 -4.29122,-1.28849 v -4.1826 h 0.24806 q 2.20762,1.32813 4.91132,2.12104 2.70372,0.77309 5.18418,0.77309 3.07578,0 4.81211,-0.79291 1.73632,-0.79292 1.73632,-2.49768 0,-1.3083 -0.94257,-1.98228 -0.94258,-0.67397 -3.62148,-1.14972 -0.9922,-0.17841 -2.60449,-0.41628 -1.58751,-0.23787 -2.90215,-0.51539 -3.64629,-0.77309 -5.18418,-2.2598 -1.51308,-1.50653 -1.51308,-3.68704 0,-1.36777 0.69453,-2.57696 0.71933,-1.20919 2.158,-2.160692 1.38907,-0.931671 3.52226,-1.466881 2.15801,-0.555039 4.81211,-0.555039 2.48047,0 5.01054,0.495564 2.55489,0.475754 4.24161,1.169552 v 3.984376 h -0.24805 q -1.78594,-1.0506 -4.34082,-1.76423 -2.55488,-0.73344 -5.01054,-0.73344 -2.55489,0 -4.31602,0.79292 -1.76112,0.77308 -1.76112,2.31926 0,1.36777 1.06659,2.06157 1.0418,0.6938 3.37344,1.1299 1.28984,0.23787 2.87734,0.47575 1.6123,0.23787 2.6789,0.4361 3.24941,0.59468 5.01055,2.04175 1.76113,1.46688 1.76113,3.88527 z"
       id="path1790"
       style="font-size:45.4129px;line-height:1;font-family:'HoloLens MDL2 Assets';-inkscape-font-specification:'HoloLens MDL2 Assets';stroke:#e9476c;stroke-width:2.837;fill:#e9476c;fill-opacity:1;stroke-opacity:1" />
  </g>
</svg>
